Coordinates
version=1
nRows=16
nColumns=63
inDegrees=yes

Units are S.I. units (second, meters, Newtons, ...)
If the header above contains a line with 'inDegrees', this indicates whether rotational values are in degrees (yes) or radians (no).

endheader
time	pelvis_tilt	pelvis_list	pelvis_rotation	pelvis_tx	pelvis_ty	pelvis_tz	hip_flexion_r	hip_adduction_r	hip_rotation_r	knee_angle_r	knee_angle_r_beta	ankle_angle_r	subtalar_angle_r	mtp_angle_r	hip_flexion_l	hip_adduction_l	hip_rotation_l	knee_angle_l	knee_angle_l_beta	ankle_angle_l	subtalar_angle_l	mtp_angle_l	L5_S1_Flex_Ext	L5_S1_Lat_Bending	L5_S1_axial_rotation	L4_L5_Flex_Ext	L4_L5_Lat_Bending	L4_L5_axial_rotation	L3_L4_Flex_Ext	L3_L4_Lat_Bending	L3_L4_axial_rotation	L2_L3_Flex_Ext	L2_L3_Lat_Bending	L2_L3_axial_rotation	L1_L2_Flex_Ext	L1_L2_Lat_Bending	L1_L2_axial_rotation	L1_T12_Flex_Ext	L1_T12_Lat_Bending	L1_T12_axial_rotation	Abs_r3	Abs_r2	Abs_r1	Abs_t1	Abs_t2	neck_flexion	neck_bending	neck_rotation	arm_flex_r	arm_add_r	arm_rot_r	elbow_flex_r	pro_sup_r	wrist_flex_r	wrist_dev_r	arm_flex_l	arm_add_l	arm_rot_l	elbow_flex_l	pro_sup_l	wrist_flex_l	wrist_dev_l
2.319149	-1.377644	-3.272088	98.149752	0.248228	0.910148	0.623155	-4.734555	-0.750074	3.750473	3.237347	0.056502	7.647712	-8.056845	0.000000	-1.063350	2.239390	-0.222627	9.425965	0.164514	10.083156	-5.078051	0.000000	-0.523797	-0.503166	-0.815127	-0.972744	-0.669211	-0.866072	-0.860546	-1.223399	-0.866072	-0.598648	-1.223399	-0.713236	-0.486398	-1.026057	-0.662290	-0.299298	-0.779405	-0.611345	-3.741430	-5.691918	-4.533490	0.000000	0.000000	-11.253398	-1.756517	0.046215	14.538233	-21.098582	12.559720	108.720084	66.094214	-5.739586	30.854433	38.592808	-16.039900	27.471660	97.893573	78.578693	-0.957398	28.027019
2.340426	-1.324517	-3.458207	97.882912	0.249209	0.910500	0.624910	-4.386695	-0.742132	4.091092	3.310664	0.057782	7.306032	-8.066291	0.000000	-0.675629	2.162100	-0.943354	9.549067	0.166663	10.359154	-4.326051	0.000000	-0.549649	-0.488640	-0.623276	-1.020753	-0.649891	-0.662231	-0.903018	-1.188080	-0.662231	-0.628194	-1.188080	-0.545366	-0.510404	-0.996435	-0.506412	-0.314069	-0.756904	-0.467457	-3.926086	-5.527594	-3.466473	0.000000	0.000000	-11.197086	-1.423038	-0.656169	13.927548	-21.487050	11.129550	109.488055	66.603530	-6.525526	30.198321	39.010439	-15.706624	25.938928	98.218542	81.938128	-0.077340	28.587149
2.361702	-1.234576	-3.636395	97.635309	0.250094	0.910850	0.626464	-4.052017	-0.692800	4.318328	3.372027	0.058853	7.045417	-7.926166	0.000000	-0.297581	2.045427	-1.645496	9.681154	0.168968	10.653836	-3.604390	0.000000	-0.573015	-0.468446	-0.445600	-1.064146	-0.623034	-0.473450	-0.941407	-1.138981	-0.473450	-0.654899	-1.138981	-0.389900	-0.532102	-0.955256	-0.362050	-0.327421	-0.725623	-0.334200	-4.092990	-5.299159	-2.478291	0.000000	0.000000	-11.176279	-1.064447	-1.290714	13.346929	-21.920677	9.784355	110.253021	66.228138	-7.450094	29.415158	38.961340	-15.329747	23.950326	98.701395	84.893674	0.448741	28.726365
2.382979	-1.137117	-3.789149	97.386836	0.250940	0.911215	0.627743	-3.758275	-0.632901	4.388669	3.416677	0.059632	6.912049	-7.545382	0.000000	0.033532	1.917607	-2.332544	9.810392	0.171224	10.927338	-2.938396	0.000000	-0.595463	-0.446643	-0.285922	-1.105834	-0.594036	-0.303792	-0.978286	-1.085969	-0.303792	-0.680555	-1.085969	-0.250182	-0.552947	-0.910795	-0.232312	-0.340247	-0.691851	-0.214442	-4.253332	-5.052519	-1.590213	0.000000	0.000000	-11.185603	-0.656950	-1.821685	12.839374	-22.356533	8.569523	110.978336	64.634216	-8.544634	28.598312	38.468729	-15.008942	21.603927	99.271864	87.359937	0.658843	28.257418
2.404255	-1.002878	-3.929586	97.132098	0.251702	0.911536	0.628691	-3.491275	-0.534518	4.383536	3.439496	0.060031	6.895380	-7.034722	0.000000	0.333529	1.757832	-2.977323	9.946160	0.173593	11.175858	-2.409125	0.000000	-0.611829	-0.419105	-0.161188	-1.136227	-0.557409	-0.171262	-1.005173	-1.019011	-0.171262	-0.699259	-1.019011	-0.141039	-0.568144	-0.854638	-0.130965	-0.349599	-0.649193	-0.120891	-4.370231	-4.740994	-0.896477	0.000000	0.000000	-11.235178	-0.308837	-2.173901	12.522397	-22.828619	7.682097	111.635323	61.444729	-10.066433	27.736465	37.501264	-14.800694	18.908405	99.941513	89.026017	0.499516	27.335409
2.425532	-0.856518	-4.050927	96.899218	0.252383	0.911822	0.629257	-3.273162	-0.419076	4.262009	3.432672	0.059911	7.002940	-6.379207	0.000000	0.583620	1.590281	-3.539505	10.079069	0.175913	11.362156	-2.041643	0.000000	-0.622911	-0.389935	-0.076991	-1.156808	-0.518614	-0.081803	-1.023381	-0.948088	-0.081803	-0.711925	-0.948088	-0.067367	-0.578435	-0.795155	-0.062555	-0.355931	-0.604009	-0.057743	-4.449392	-4.411022	-0.428200	0.000000	0.000000	-11.299198	0.018335	-2.371048	12.367306	-23.294545	7.098596	112.193430	56.950748	-11.898785	26.774036	36.162484	-14.789461	16.073291	100.659613	89.845538	-0.211999	26.087414
2.446809	-0.715253	-4.148384	96.680451	0.253028	0.912065	0.629433	-3.109005	-0.304163	3.985059	3.406033	0.059446	7.248353	-5.519170	0.000000	0.774031	1.433314	-3.990209	10.205858	0.178126	11.456829	-1.881163	0.000000	-0.629695	-0.361918	-0.031767	-1.169407	-0.481351	-0.033753	-1.034526	-0.879967	-0.033753	-0.719679	-0.879967	-0.027796	-0.584735	-0.738023	-0.025811	-0.359808	-0.560611	-0.023825	-4.497850	-4.094088	-0.176680	0.000000	0.000000	-11.354800	0.314599	-2.409378	12.350384	-23.700410	6.779160	112.644248	51.710068	-14.066182	25.865475	34.585497	-15.030764	13.310689	101.395898	89.796908	-1.646302	24.875723
2.468085	-0.583030	-4.219649	96.474102	0.253626	0.912268	0.629250	-2.998613	-0.195439	3.584625	3.365936	0.058747	7.591748	-4.483875	0.000000	0.898457	1.293718	-4.319307	10.315626	0.180042	11.452309	-1.935979	0.000000	-0.633420	-0.336248	-0.021868	-1.176325	-0.447209	-0.023235	-1.040646	-0.817553	-0.023235	-0.723936	-0.817553	-0.019135	-0.588194	-0.685676	-0.017768	-0.361936	-0.520848	-0.016401	-4.524457	-3.803701	-0.121624	0.000000	0.000000	-11.372299	0.591161	-2.319374	12.419742	-24.053838	6.714269	112.979135	45.970345	-16.470411	24.895478	32.904009	-15.500625	10.784557	102.123526	88.797421	-3.860831	24.079513
2.489362	-0.456982	-4.274769	96.289179	0.254166	0.912419	0.628731	-2.933201	-0.085736	3.172989	3.308369	0.057742	7.963648	-3.471573	0.000000	0.968517	1.169172	-4.520040	10.403363	0.181573	11.369038	-2.180553	0.000000	-0.632267	-0.312831	-0.044489	-1.174184	-0.416065	-0.047270	-1.038752	-0.760617	-0.047270	-0.722619	-0.760617	-0.038928	-0.587124	-0.637925	-0.036147	-0.361278	-0.484575	-0.033367	-4.516223	-3.538806	-0.247434	0.000000	0.000000	-11.374729	0.804640	-2.117715	12.528852	-24.328676	6.837389	113.184715	40.870772	-18.829046	23.969492	31.198507	-16.195436	8.628682	102.801075	87.342022	-6.659582	23.817782
2.510638	-0.342721	-4.311099	96.127901	0.254631	0.912536	0.627950	-2.910888	0.016355	2.754477	3.238106	0.056516	8.329503	-2.480980	0.000000	0.983655	1.063120	-4.631432	10.461540	0.182588	11.244544	-2.529224	0.000000	-0.628176	-0.292231	-0.092547	-1.166586	-0.388667	-0.098332	-1.032031	-0.710530	-0.098332	-0.717942	-0.710530	-0.080979	-0.583324	-0.595917	-0.075195	-0.358940	-0.452666	-0.069410	-4.486999	-3.305775	-0.514720	0.000000	0.000000	-11.358343	0.947304	-1.832599	12.644660	-24.507111	7.057889	113.247674	36.921306	-20.829044	23.106245	29.506671	-17.020116	6.743786	103.351181	86.854457	-9.031760	24.046686
2.531915	-0.242412	-4.328184	96.006065	0.255041	0.912622	0.626955	-2.933221	0.112928	2.315656	3.154008	0.055048	8.682950	-1.524759	0.000000	0.948653	0.973048	-4.643099	10.488074	0.183051	11.113693	-2.935810	0.000000	-0.621824	-0.275485	-0.164886	-1.154789	-0.366395	-0.175191	-1.021594	-0.669815	-0.175191	-0.710682	-0.669815	-0.144275	-0.577425	-0.561769	-0.133970	-0.355310	-0.426727	-0.123664	-4.441624	-3.116344	-0.917046	0.000000	0.000000	-11.347764	1.017462	-1.476769	12.758204	-24.560175	7.313122	113.154727	34.431704	-22.242237	22.360387	27.876393	-17.896940	5.071309	103.744894	86.767864	-10.961621	24.704452
2.553191	-0.150908	-4.329275	95.926080	0.255381	0.912672	0.625800	-2.994243	0.208507	1.866628	3.056518	0.053346	9.020898	-0.623917	0.000000	0.876193	0.894871	-4.559236	10.489527	0.183077	11.011627	-3.388838	0.000000	-0.614830	-0.262229	-0.245922	-1.141801	-0.348765	-0.261292	-1.010105	-0.637584	-0.261292	-0.702690	-0.637584	-0.215182	-0.570931	-0.534737	-0.199812	-0.351314	-0.406193	-0.184442	-4.391671	-2.966387	-1.367745	0.000000	0.000000	-11.360923	1.046766	-1.144339	12.777585	-24.520254	7.504040	112.970729	33.173747	-23.107321	21.687409	26.375738	-18.755279	3.652651	103.916598	86.719352	-12.534836	25.722876
2.574468	-0.075184	-4.326285	95.879060	0.255686	0.912708	0.624568	-3.074647	0.293683	1.430884	2.950004	0.051487	9.333384	0.199319	0.000000	0.769142	0.822660	-4.554449	10.436398	0.182150	10.986482	-3.618548	0.000000	-0.607196	-0.253250	-0.323843	-1.127624	-0.336822	-0.344083	-0.997563	-0.615752	-0.344083	-0.693965	-0.615752	-0.283362	-0.563843	-0.516427	-0.263122	-0.346952	-0.392284	-0.242882	-4.337143	-2.864814	-1.801117	0.000000	0.000000	-11.421319	1.051588	-0.880121	12.661571	-24.394015	7.548592	112.731802	32.972081	-23.394161	21.177690	25.029387	-19.571707	2.513531	103.830025	86.760907	-13.738680	26.926824
2.595745	-0.007345	-4.326868	95.911218	0.255876	0.912734	0.623351	-3.167130	0.377607	0.991400	2.832075	0.049429	9.609825	0.904164	0.000000	0.654595	0.753394	-4.540386	10.346561	0.180582	11.020512	-3.692073	0.000000	-0.600232	-0.246812	-0.409003	-1.114690	-0.328259	-0.434566	-0.986121	-0.600098	-0.434566	-0.686005	-0.600098	-0.357878	-0.557375	-0.503298	-0.332315	-0.342972	-0.382311	-0.306752	-4.287396	-2.791981	-2.274753	0.000000	0.000000	-11.531154	1.036305	-0.639013	12.452699	-24.198841	7.476626	112.458880	33.504775	-23.237757	20.992052	23.747198	-20.270906	1.542108	103.527594	86.899498	-14.550067	28.029735
2.617021	0.064587	-4.340533	96.022275	0.255945	0.912746	0.622234	-3.251020	0.468547	0.506576	2.712034	0.047334	9.852681	1.556181	0.000000	0.555597	0.681143	-4.446956	10.233490	0.178608	11.075365	-3.723555	0.000000	-0.593931	-0.240806	-0.498735	-1.102990	-0.320272	-0.529906	-0.975770	-0.585495	-0.529906	-0.678804	-0.585495	-0.436393	-0.551525	-0.491051	-0.405222	-0.339372	-0.373008	-0.374051	-4.242391	-2.724043	-2.773813	0.000000	0.000000	-11.685435	0.994861	-0.424222	12.183739	-23.987065	7.324460	112.173916	34.686198	-22.731646	21.193645	22.488405	-20.801701	0.711853	103.065403	87.142342	-14.946612	28.935234
2.638298	0.134816	-4.371107	96.213720	0.255892	0.912731	0.621252	-3.322253	0.560316	-0.013397	2.591847	0.045236	10.055381	2.128518	0.000000	0.474794	0.613419	-4.285697	10.090971	0.176121	11.131533	-3.714608	0.000000	-0.588566	-0.235472	-0.593605	-1.093025	-0.313178	-0.630706	-0.966954	-0.572528	-0.630706	-0.672672	-0.572528	-0.519405	-0.546542	-0.480175	-0.482304	-0.336306	-0.364747	-0.445204	-4.204065	-2.663712	-3.301454	0.000000	0.000000	-11.870753	0.958999	-0.214740	11.899684	-23.801340	7.176028	111.896737	36.220953	-22.144117	21.750643	21.204502	-21.170235	0.053760	102.559266	87.474981	-15.057991	29.649026
